<svg xmlns="http://www.w3.org/2000/svg" xmlns:xlink="http://www.w3.org/1999/xlink" viewBox="0,0,256,256" width="500px" height="500px" fill-rule="nonzero"><g transform=""><g fill="#8e24aa" fill-rule="nonzero" stroke="none" stroke-width="1" stroke-linecap="butt" stroke-linejoin="miter" stroke-miterlimit="10" stroke-dasharray="" stroke-dashoffset="0" font-family="none" font-weight="none" font-size="none" text-anchor="none" style="mix-blend-mode: normal"><g transform="scale(9.84615,9.84615)"><path d="M5,0v11l3,5l3,-5v-7h11c0.55078,0 1,0.44922 1,1v11h-15l1.96875,3.28125l-0.25,0.1875l-2.71875,2.25v-2.71875h-3c-0.55078,0 -1,-0.44922 -1,-1v-13c0,-0.55078 0.44922,-1 1,-1v-2c-1.65625,0 -3,1.34375 -3,3v13c0,1.65625 1.34375,3 3,3h1v5l6,-5h11c1.65625,0 3,-1.34375 3,-3v-13c0,-1.65625 -1.34375,-3 -3,-3h-11v-2zM8,10l2,0.65625v0.0625l-1.5625,2.59375h-0.875l-1.5625,-2.59375v-0.0625z"></path></g></g></g></svg>